<?xml version="1.0" encoding="UTF-8" standalone="no"?>
<svg
   xmlns:dc="http://purl.org/dc/elements/1.1/"
   xmlns:cc="http://creativecommons.org/ns#"
   xmlns:rdf="http://www.w3.org/1999/02/22-rdf-syntax-ns#"
   xmlns:svg="http://www.w3.org/2000/svg"
   xmlns="http://www.w3.org/2000/svg"
   width="210mm"
   height="297mm"
   viewBox="0 0 210 297"
   version="1.1"
   id="svg8">
  <defs
     id="defs2" />
  <metadata
     id="metadata5">
    <rdf:RDF>
      <cc:Work
         rdf:about="">
        <dc:format>image/svg+xml</dc:format>
        <dc:type
           rdf:resource="http://purl.org/dc/dcmitype/StillImage" />
        <dc:title></dc:title>
      </cc:Work>
    </rdf:RDF>
  </metadata>
  <g
     id="layer1">
    <g
       id="svgg"
       transform="matrix(1.0583333,0,0,1.0583333,-106.03681,-17.218034)">
      <path
         id="path0"
         d="m 268.096,100.114 -12.104,12.086 0.104,54.6 0.104,54.6 12.1,0.106 12.1,0.106 v -66.806 c 0,-36.743 -0.045,-66.8 -0.1,-66.792 -0.055,0.008 -5.547,5.453 -12.204,12.1 M 235.2,138.667 c -6.05,6.044 -11.405,11.378 -11.9,11.853 l -0.9,0.863 v 34.909 34.908 h 12 12 v -46.8 c 0,-25.74 -0.045,-46.783 -0.1,-46.762 -0.055,0.021 -5.05,4.984 -11.1,11.029"
         stroke="none"
         fill="#17b2ba"
         fill-rule="evenodd" />
      <path
         id="path1"
         d="m 176.8,87.304 c 0,0.477 14.36,15.096 14.829,15.096 0.121,0 -3.076,-3.279 -7.104,-7.286 -4.029,-4.007 -7.325,-7.427 -7.325,-7.6 0,-0.173 10.26,-0.314 22.8,-0.314 12.54,0 22.8,0.141 22.8,0.313 0,0.173 -4.86,5.155 -10.8,11.072 -5.94,5.918 -10.8,10.86 -10.8,10.984 0,0.124 4.95,-4.722 11,-10.769 6.05,-6.047 11,-11.221 11,-11.497 0,-0.398 -4.84,-0.503 -23.2,-0.503 -18.393,0 -23.2,0.104 -23.2,0.504 m 99.792,3.596 -3.592,3.7 3.7,-3.592 c 3.436,-3.336 3.882,-3.808 3.592,-3.808 -0.06,0 -1.725,1.665 -3.7,3.7 m -157.357,63.664 c 0,51.885 0.109,67.005 0.483,67.147 0.265,0.1 4.027,0.212 8.361,0.248 l 7.878,0.065 4.154,-4.2 4.155,-4.2 -0.033,-50.849 -0.033,-50.85 -12.31,-12.162 C 125.119,93.073 119.502,87.6 119.407,87.6 c -0.095,0 -0.173,30.134 -0.172,66.964 m 77.132,-47.219 c 0.533,0.656 2.033,1.648 2.033,1.344 0,-0.076 -0.585,-0.567 -1.3,-1.09 -0.804,-0.589 -1.084,-0.686 -0.733,-0.254 m 59.313,4.335 c -0.546,0.546 -0.724,109.722 -0.18,110.058 0.165,0.102 0.254,-24.482 0.197,-54.632 -0.075,-40.282 0.017,-54.962 0.349,-55.362 0.558,-0.672 0.289,-0.719 -0.366,-0.064 m -102.3,32.694 c -0.012,12.306 0.123,22.286 0.3,22.177 0.176,-0.109 0.32,-0.018 0.32,0.202 0,0.22 -0.137,0.484 -0.304,0.588 -0.338,0.209 -0.376,30.912 -0.039,31.25 0.35,0.349 7.146,-6.663 6.878,-7.096 -0.136,-0.219 -0.025,-0.325 0.246,-0.235 0.646,0.216 13.279,-12.44 12.949,-12.973 -0.139,-0.226 -0.075,-0.3 0.144,-0.165 0.568,0.351 3.762,-2.836 4.088,-4.08 0.15,-0.573 0.254,-7.04 0.23,-14.37 l -0.043,-13.328 -12.174,-12.169 c -6.696,-6.693 -12.265,-12.17 -12.375,-12.172 -0.11,-0.002 -0.209,10.066 -0.22,22.371 m 74.415,0.526 -6.395,6.5 6.5,-6.395 c 6.039,-5.942 6.681,-6.605 6.395,-6.605 -0.057,0 -2.982,2.925 -6.5,6.5 m -40.383,7.081 c -0.143,0.23 -0.049,0.419 0.207,0.419 0.281,0 0.359,0.278 0.195,0.7 -0.35,0.902 -0.314,6.973 0.046,7.913 0.155,0.404 0.115,0.619 -0.092,0.491 -0.202,-0.125 -0.368,0.548 -0.368,1.496 0,0.948 0.135,1.64 0.3,1.538 0.43,-0.265 0.37,0.18 -0.158,1.188 -0.457,0.872 -0.456,0.872 0.414,0.099 0.48,-0.426 0.785,-1.002 0.678,-1.279 -0.109,-0.285 0.023,-0.422 0.303,-0.315 0.273,0.105 0.91,-0.368 1.415,-1.052 0.505,-0.683 1.024,-1.136 1.153,-1.007 0.129,0.129 0.56,-0.262 0.958,-0.869 0.399,-0.607 0.952,-1.103 1.231,-1.103 0.278,0 0.506,-0.21 0.506,-0.467 0,-0.256 0.116,-0.582 0.257,-0.724 0.376,-0.375 -5.19,-5.898 -5.655,-5.61 -0.216,0.133 -0.297,-0.008 -0.179,-0.314 0.269,-0.701 -0.837,-1.71 -1.211,-1.104 m 33.882,34.495 c -0.052,19.292 0.041,35.16 0.206,35.262 0.272,0.168 0.269,-24.771 -0.006,-57.738 -0.058,-6.93 -0.148,3.184 -0.2,22.476 m -29.601,-11.17 -4.493,4.507 v 20.87 c 0,11.478 0.135,20.953 0.3,21.055 0.165,0.102 0.252,-9.286 0.193,-20.863 l -0.107,-21.048 4.5,-4.514 c 2.476,-2.482 4.411,-4.513 4.301,-4.513 -0.11,0 -2.222,2.028 -4.694,4.506 M 177.9,189.232 c -0.385,0.224 -0.697,0.624 -0.694,0.888 0.004,0.321 0.122,0.297 0.355,-0.071 0.974,-1.538 1.132,0.636 1.129,15.552 -0.002,8.59 0.112,15.735 0.253,15.876 0.142,0.141 0.257,-7.154 0.257,-16.21 0,-9.057 -0.135,-16.462 -0.3,-16.455 -0.165,0.007 -0.615,0.196 -1,0.42 M 154.2,212.8 c -4.616,4.62 -8.303,8.4 -8.193,8.4 0.11,0 3.977,-3.78 8.593,-8.4 4.616,-4.62 8.303,-8.4 8.193,-8.4 -0.11,0 -3.977,3.78 -8.593,8.4 m -0.073,9.1 c 4.58,0.064 11.96,0.064 16.4,-0.001 4.44,-0.064 0.693,-0.116 -8.327,-0.116 -9.02,0 -12.653,0.052 -8.073,0.117"
         stroke="none"
         fill="#ecf4f4"
         fill-rule="evenodd" />
      <path
         id="path2"
         d="m 280.595,154.6 c 0,36.96 0.047,52.021 0.105,33.468 0.057,-18.552 0.057,-48.792 0,-67.2 -0.058,-18.407 -0.105,-3.228 -0.105,33.732 m -17.999,-49.3 -6.796,6.9 6.9,-6.796 c 6.41,-6.313 7.081,-7.004 6.796,-7.004 -0.058,0 -3.163,3.105 -6.9,6.9 m -6.9,61.376 c -0.053,29.962 0.039,54.56 0.204,54.662 0.271,0.168 0.27,-37.71 -0.004,-89.538 -0.057,-10.78 -0.147,4.914 -0.2,34.876 M 235,138.4 c -6.157,6.16 -11.053,11.2 -10.879,11.2 0.174,0 5.258,-4.944 11.298,-10.986 L 246.4,127.628 v 46.786 46.786 h -12 -12 v -34.869 c 0,-32.207 0.052,-34.925 0.678,-35.617 0.566,-0.625 0.575,-0.709 0.056,-0.51 -1.538,0.59 -1.552,0.959 -1.441,36.596 l 0.107,34.6 12.5,0.106 12.5,0.105 v -47.205 c 0,-25.963 -0.136,-47.206 -0.303,-47.206 -0.166,0 -5.34,5.04 -11.497,11.2 m -34.953,29.353 -12.148,12.152 0.02,20.148 c 0.01,11.081 0.033,20.462 0.05,20.847 0.029,0.651 0.89,0.7 12.231,0.7 h 12.2 v -33 c 0,-18.15 -0.046,-33 -0.102,-33 -0.057,0 -5.569,5.469 -12.251,12.153"
         stroke="none"
         fill="#64ccd4"
         fill-rule="evenodd" />
      <path
         id="path3"
         d="m 177.2,87.523 c 0,0.177 5.133,5.416 11.407,11.642 l 11.406,11.319 11.394,-11.318 C 217.673,92.94 222.8,87.702 222.8,87.524 222.8,87.346 212.54,87.2 200,87.2 c -12.54,0 -22.8,0.145 -22.8,0.323 m 102.763,0.36 c -0.513,0.654 -0.501,0.668 0.137,0.168 0.666,-0.522 0.7,2.702 0.7,66.511 v 67.06 l -12.58,-0.111 c -6.92,-0.061 -12.443,0.027 -12.275,0.195 0.169,0.168 5.875,0.258 12.681,0.2 L 281,221.8 l 0.101,-66.979 c 0.056,-36.838 -0.051,-67.131 -0.237,-67.317 -0.186,-0.186 -0.591,-0.015 -0.901,0.379 M 234.397,138.7 222.6,150.6 234.403,138.9 c 6.491,-6.435 11.935,-11.7 12.098,-11.7 0.163,0 0.342,21.285 0.399,47.3 l 0.103,47.3 0.099,-47.5 c 0.078,-37.914 -0.003,-47.5 -0.405,-47.5 -0.276,0 -5.811,5.355 -12.3,11.9 m -34.532,28.835 c -11.326,11.331 -12.317,12.43 -12.158,13.5 l 0.173,1.165 0.06,-1.202 c 0.051,-1.014 1.982,-3.124 12.264,-13.4 l 12.204,-12.198 -0.104,33.266 c -0.086,27.594 -0.014,33.191 0.426,32.826 0.661,-0.549 0.52,-65.942 -0.142,-66.163 -0.216,-0.072 -5.941,5.421 -12.723,12.206 m -37.763,37.858 -16.302,16.192 16.448,0.008 16.449,0.007 -0.009,-16.2 c -0.005,-8.91 -0.071,-16.2 -0.147,-16.2 -0.076,0 -7.473,7.287 -16.439,16.193 m 59.844,16.313 c 0.168,0.168 5.784,0.258 12.48,0.2 L 246.6,221.799 234.12,221.6 c -6.865,-0.11 -12.343,-0.062 -12.174,0.106"
         stroke="none"
         fill="#ccecec"
         fill-rule="evenodd" />
      <path
         id="path4"
         d="M 99.867,55.867 C 99.72,56.013 99.6,101.193 99.6,156.267 V 256.4 H 200 300.4 V 156 55.6 H 200.267 c -55.074,0 -100.254,0.12 -100.4,0.267 M 223.2,87.321 c 0,0.287 -5.215,5.708 -11.589,12.048 L 200.022,110.894 188.411,99.37 C 182.025,93.031 176.8,87.61 176.8,87.322 c 0,-0.423 4.378,-0.522 23.2,-0.522 18.8,0 23.2,0.099 23.2,0.521 m 58,67.285 v 67.405 l -12.9,-0.105 -12.9,-0.106 -0.101,-54.796 -0.102,-54.796 12.499,-12.504 c 6.875,-6.877 12.725,-12.504 13.002,-12.504 0.401,0 0.502,13.577 0.502,67.406 m -149.31,-54.843 12.31,12.162 0.033,50.85 0.033,50.849 -4.155,4.2 -4.154,4.2 -7.878,-0.065 c -4.334,-0.036 -8.096,-0.148 -8.361,-0.248 -0.465,-0.176 -0.776,-134.111 -0.311,-134.111 0.095,0 5.712,5.473 12.483,12.163 m 34.085,34.412 12.174,12.169 0.043,13.328 c 0.024,7.33 -0.08,13.797 -0.23,14.37 -0.326,1.244 -3.52,4.431 -4.088,4.08 -0.219,-0.135 -0.283,-0.061 -0.144,0.165 0.33,0.533 -12.303,13.189 -12.949,12.973 -0.271,-0.09 -0.382,0.016 -0.246,0.235 0.268,0.433 -6.528,7.445 -6.878,7.096 -0.337,-0.338 -0.299,-31.041 0.039,-31.25 0.167,-0.104 0.304,-0.368 0.304,-0.588 0,-0.22 -0.144,-0.311 -0.32,-0.202 -0.177,0.109 -0.312,-9.871 -0.3,-22.177 0.011,-12.305 0.11,-22.373 0.22,-22.371 0.11,0.002 5.679,5.479 12.375,12.172 M 247.102,174.1 247,221.8 h -12.8 -12.8 l -0.109,-35.2 -0.108,-35.2 12.633,-12.5 c 6.949,-6.875 12.803,-12.5 13.01,-12.5 0.235,0 0.339,18.057 0.276,47.7 m -58.479,-21.015 c -0.118,0.306 -0.037,0.447 0.179,0.314 0.465,-0.288 6.031,5.235 5.655,5.61 -0.141,0.142 -0.257,0.468 -0.257,0.724 0,0.257 -0.228,0.467 -0.506,0.467 -0.279,0 -0.832,0.496 -1.231,1.103 -0.398,0.607 -0.829,0.998 -0.958,0.869 -0.129,-0.129 -0.648,0.324 -1.153,1.007 -0.505,0.684 -1.142,1.157 -1.415,1.052 -0.28,-0.107 -0.412,0.03 -0.303,0.315 0.107,0.277 -0.198,0.853 -0.678,1.279 -0.87,0.773 -0.871,0.773 -0.414,-0.099 0.528,-1.008 0.588,-1.453 0.158,-1.188 -0.165,0.102 -0.3,-0.59 -0.3,-1.538 0,-0.948 0.166,-1.621 0.368,-1.496 0.207,0.128 0.247,-0.087 0.092,-0.491 -0.36,-0.94 -0.396,-7.011 -0.046,-7.913 0.164,-0.422 0.086,-0.7 -0.195,-0.7 -0.256,0 -0.35,-0.189 -0.207,-0.419 0.374,-0.606 1.48,0.403 1.211,1.104 M 213.102,188.3 213,221.8 h -12.8 -12.8 l -0.111,-21 -0.111,-21 12.711,-12.483 c 6.991,-6.866 12.847,-12.491 13.013,-12.5 0.167,-0.009 0.257,15.058 0.2,33.483 M 179.2,205.157 c 0,14.547 -0.07,16.384 -0.633,16.6 -1.399,0.537 -32.567,0.269 -32.567,-0.28 0,-0.601 32.198,-32.677 32.802,-32.677 0.258,0 0.398,5.766 0.398,16.357"
         stroke="none"
         fill="#ffffff"
         fill-rule="evenodd"
         style="fill:#ffffff;fill-opacity:0" />
    </g>
  </g>
</svg>
